#N canvas 1032 214 426 401 10;
#X obj 191 345 dac~;
#X floatatom 88 144 5 0 0 0 - - -, f 5;
#X floatatom 280 145 5 0 0 0 - - -, f 5;
#X obj 188 179 +;
#X obj 279 220 osc~;
#X obj 96 220 osc~;
#X text 20 147 base freq;
#X obj 144 281 *~;
#X obj 239 282 *~;
#X obj 194 251 tgl 15 0 empty empty empty 17 7 0 10 -262144 -1 -1 1
1;
#X obj 169 22 receive fromGUI;
#X obj 187 48 list trim;
#X obj 53 108 route /myBase;
#X obj 303 102 route /myPulse;
#X obj 155 223 route /myToggle;
#X text 320 144 pulse freq;
#X connect 1 0 3 0;
#X connect 1 0 5 0;
#X connect 2 0 3 1;
#X connect 3 0 4 0;
#X connect 4 0 8 0;
#X connect 5 0 7 0;
#X connect 7 0 0 0;
#X connect 8 0 0 1;
#X connect 9 0 7 1;
#X connect 9 0 8 1;
#X connect 10 0 11 0;
#X connect 11 0 12 0;
#X connect 11 0 13 0;
#X connect 11 0 14 0;
#X connect 12 0 1 0;
#X connect 13 0 2 0;
#X connect 14 0 9 0;
